<?xml version="1.0" encoding="UTF-8" standalone="no"?>
<svg
   width="33"
   height="31"
   viewBox="0 0 33 31"
   fill="none"
   version="1.1"
   id="svg3"
   sodipodi:docname="logo.svg"
   xml:space="preserve"
   inkscape:version="1.4.1-rc (06eac75fbf, 2025-03-29)"
   xmlns:inkscape="http://www.inkscape.org/namespaces/inkscape"
   xmlns:sodipodi="http://sodipodi.sourceforge.net/DTD/sodipodi-0.dtd"
   xmlns="http://www.w3.org/2000/svg"
   xmlns:svg="http://www.w3.org/2000/svg"><sodipodi:namedview
     id="namedview3"
     pagecolor="#505050"
     bordercolor="#ffffff"
     borderopacity="1"
     inkscape:showpageshadow="0"
     inkscape:pageopacity="0"
     inkscape:pagecheckerboard="1"
     inkscape:deskcolor="#505050"
     showgrid="false"
     inkscape:zoom="26.026092"
     inkscape:cx="14.447041"
     inkscape:cy="15.580518"
     inkscape:window-width="2474"
     inkscape:window-height="1369"
     inkscape:window-x="2006"
     inkscape:window-y="34"
     inkscape:window-maximized="1"
     inkscape:current-layer="svg3" /><path
     d="M30.0222 23.6646C30.0494 23.983 29.8009 24.2566 29.4846 24.2566H3.46924C3.15373 24.2566 2.90553 23.9843 2.93156 23.6665L4.7959 0.912269C4.8191 0.629618 5.05287 0.412109 5.33372 0.412109H27.5426C27.8226 0.412109 28.0561 0.628527 28.0801 0.910361L30.0222 23.6646Z"
     fill="#1DCF65"
     id="path1" /><path
     d="M32.0988 29.6014C32.1313 29.9985 31.8211 30.339 31.4268 30.339H1.59438C1.2009 30.339 0.890922 30.0002 0.922082 29.6037L3.06376 2.34718C3.09168 1.9927 3.38426 1.71973 3.73606 1.71973H29.1958C29.5468 1.71973 29.8391 1.99161 29.868 2.34499L32.0988 29.6014Z"
     fill="url(#paint0_linear_150_1235)"
     id="path2" /><defs
     id="defs3"><linearGradient
       id="paint0_linear_150_1235"
       x1="25.8733"
       y1="26.3337"
       x2="7.51325"
       y2="4.9008"
       gradientUnits="userSpaceOnUse"><stop
         stop-color="#52D67A"
         id="stop2" /><stop
         offset="1"
         stop-color="#5AEE87"
         id="stop3" /></linearGradient></defs><g
     style="fill:none"
     id="g3"
     transform="translate(7.9426885,8.2309635)"><path
       d="m 7.92324,12.6953 c -3.883,0 -7.041892,-3.83216 -7.041892,-8.54252 0,-0.24531 0.196802,-0.44428 0.439742,-0.44428 0.24294,0 0.43975,0.19883 0.43975,0.44428 0,4.22042 2.76447,7.65392 6.16253,7.65392 3.39803,0 6.16253,-3.4335 6.16253,-7.65392 0,-0.24531 0.1968,-0.44428 0.4398,-0.44428 0.2429,0 0.4397,0.19883 0.4397,0.44428 -1e-4,4.71036 -3.1592,8.54252 -7.04216,8.54252 z"
       fill="#ffffff"
       id="path1-7" /><path
       d="m 12.2581,4.03371 c -0.1125,0 -0.225,-0.04334 -0.311,-0.13015 -0.1717,-0.17349 -0.1717,-0.45478 0,-0.62826 L 14.226,0.972924 c 0.0824,-0.083269 0.1943,-0.130151 0.3109,-0.130151 0.1167,0 0.2285,0.046746 0.311,0.130151 l 2.2566,2.280026 c 0.1717,0.17348 0.1717,0.45477 0,0.62826 -0.1718,0.17335 -0.4502,0.17349 -0.6219,0 L 14.5368,1.91546 12.569,3.90356 c -0.0859,0.08681 -0.1984,0.13015 -0.3109,0.13015 z"
       fill="#ffffff"
       id="path2-5" /></g></svg>
